<svg xmlns="http://www.w3.org/2000/svg" xmlns:xlink="http://www.w3.org/1999/xlink" width="500" zoomAndPan="magnify" viewBox="0 0 375 112.499997" height="150" preserveAspectRatio="xMidYMid meet" version="1.2"><defs><clipPath id="347bb68111"><path d="M 57.503906 25.15625 L 63.328125 25.15625 L 63.328125 58.753906 L 57.503906 58.753906 Z M 57.503906 25.15625 "/></clipPath><clipPath id="697569e5b2"><path d="M 8.371094 27.496094 L 14.195312 27.496094 L 14.195312 61.097656 L 8.371094 61.097656 Z M 8.371094 27.496094 "/></clipPath></defs><g id="e3e482148d"><g style="fill:#000000;fill-opacity:1;"><g transform="translate(0.829651, 67.46563)"><path style="stroke:none" d="M 35.046875 -8.953125 L 57.1875 -59.125 L 62.59375 -59.125 L 62.59375 0 L 56.671875 0 L 56.671875 -44.265625 L 37 0 L 33.03125 0 L 13.4375 -44.265625 L 13.4375 0 L 7.515625 0 L 7.515625 -59.125 L 13.015625 -59.125 Z M 35.046875 -8.953125 "/></g></g><g style="fill:#1e90ff;fill-opacity:1;"><g transform="translate(0.829651, 87.142164)"><path style="stroke:none" d="M 35.046875 -8.953125 L 57.1875 -59.125 L 62.59375 -59.125 L 62.59375 0 L 56.671875 0 L 56.671875 -44.265625 L 37 0 L 33.03125 0 L 13.4375 -44.265625 L 13.4375 0 L 7.515625 0 L 7.515625 -59.125 L 13.015625 -59.125 Z M 35.046875 -8.953125 "/></g></g><g style="fill:#000000;fill-opacity:1;"><g transform="translate(0.829651, 106.554141)"><path style="stroke:none" d="M 35.046875 -8.953125 L 57.1875 -59.125 L 62.59375 -59.125 L 62.59375 0 L 56.671875 0 L 56.671875 -44.265625 L 37 0 L 33.03125 0 L 13.4375 -44.265625 L 13.4375 0 L 7.515625 0 L 7.515625 -59.125 L 13.015625 -59.125 Z M 35.046875 -8.953125 "/></g></g><g clip-rule="nonzero" clip-path="url(#347bb68111)"><path style=" stroke:none;fill-rule:nonzero;fill:#000000;fill-opacity:1;" d="M 57.503906 25.15625 L 63.328125 25.15625 L 63.328125 58.757812 L 57.503906 58.757812 Z M 57.503906 25.15625 "/></g><g style="fill:#000000;fill-opacity:1;"><g transform="translate(65.922719, 72.083058)"><path style="stroke:none" d="M 16.171875 -7.65625 L 24.6875 -26.015625 L 29.40625 -26.015625 L 29.40625 0 L 24.265625 0 L 24.265625 -15.015625 L 17.28125 0 L 14.640625 0 L 7.734375 -14.875 L 7.734375 0 L 2.609375 0 L 2.609375 -26.015625 L 7.65625 -26.015625 Z M 16.171875 -7.65625 "/></g></g><g style="fill:#000000;fill-opacity:1;"><g transform="translate(97.91809, 72.083058)"><path style="stroke:none" d="M 24.34375 0 L 18.765625 0 L 16.875 -5.359375 L 7.0625 -5.359375 L 5.171875 0 L -0.21875 0 L 9.484375 -26.015625 L 14.6875 -26.015625 Z M 15.125 -10.265625 L 11.96875 -19.40625 L 8.8125 -10.265625 Z M 15.125 -10.265625 "/></g></g><g style="fill:#000000;fill-opacity:1;"><g transform="translate(122.03539, 72.083058)"><path style="stroke:none" d="M 12.53125 -26.015625 C 14.207031 -26.015625 15.734375 -25.628906 17.109375 -24.859375 C 18.492188 -24.097656 19.582031 -23.046875 20.375 -21.703125 C 21.164062 -20.367188 21.5625 -18.867188 21.5625 -17.203125 C 21.5625 -15.546875 21.164062 -14.046875 20.375 -12.703125 C 19.582031 -11.367188 18.492188 -10.316406 17.109375 -9.546875 C 15.734375 -8.785156 14.207031 -8.40625 12.53125 -8.40625 L 7.921875 -8.40625 L 7.921875 0 L 2.609375 0 L 2.609375 -26.015625 Z M 12.421875 -13.53125 C 13.484375 -13.53125 14.382812 -13.882812 15.125 -14.59375 C 15.875 -15.300781 16.25 -16.171875 16.25 -17.203125 C 16.25 -18.242188 15.875 -19.117188 15.125 -19.828125 C 14.382812 -20.535156 13.484375 -20.890625 12.421875 -20.890625 L 7.921875 -20.890625 L 7.921875 -13.53125 Z M 12.421875 -13.53125 "/></g></g><g style="fill:#000000;fill-opacity:1;"><g transform="translate(144.889228, 72.083058)"><path style="stroke:none" d=""/></g></g><g style="fill:#000000;fill-opacity:1;"><g transform="translate(154.25373, 72.083058)"><path style="stroke:none" d="M 16.171875 -7.65625 L 24.6875 -26.015625 L 29.40625 -26.015625 L 29.40625 0 L 24.265625 0 L 24.265625 -15.015625 L 17.28125 0 L 14.640625 0 L 7.734375 -14.875 L 7.734375 0 L 2.609375 0 L 2.609375 -26.015625 L 7.65625 -26.015625 Z M 16.171875 -7.65625 "/></g></g><g style="fill:#000000;fill-opacity:1;"><g transform="translate(186.249101, 72.083058)"><path style="stroke:none" d="M 11.046875 -15.359375 L 16.359375 -26.015625 L 22.078125 -26.015625 L 13.609375 -9.703125 L 13.609375 0 L 8.296875 0 L 8.296875 -9.703125 L -0.1875 -26.015625 L 5.71875 -26.015625 Z M 11.046875 -15.359375 "/></g></g><g style="fill:#000000;fill-opacity:1;"><g transform="translate(208.136755, 72.083058)"><path style="stroke:none" d=""/></g></g><g style="fill:#1e90ff;fill-opacity:1;"><g transform="translate(217.513521, 72.083058)"><path style="stroke:none" d="M 16.171875 -7.65625 L 24.6875 -26.015625 L 29.40625 -26.015625 L 29.40625 0 L 24.265625 0 L 24.265625 -15.015625 L 17.28125 0 L 14.640625 0 L 7.734375 -14.875 L 7.734375 0 L 2.609375 0 L 2.609375 -26.015625 L 7.65625 -26.015625 Z M 16.171875 -7.65625 "/></g></g><g style="fill:#1e90ff;fill-opacity:1;"><g transform="translate(249.508892, 72.083058)"><path style="stroke:none" d="M 24.34375 0 L 18.765625 0 L 16.875 -5.359375 L 7.0625 -5.359375 L 5.171875 0 L -0.21875 0 L 9.484375 -26.015625 L 14.6875 -26.015625 Z M 15.125 -10.265625 L 11.96875 -19.40625 L 8.8125 -10.265625 Z M 15.125 -10.265625 "/></g></g><g style="fill:#1e90ff;fill-opacity:1;"><g transform="translate(273.626192, 72.083058)"><path style="stroke:none" d="M 14.015625 0.484375 C 11.734375 0.484375 9.613281 -0.113281 7.65625 -1.3125 C 5.695312 -2.519531 4.132812 -4.15625 2.96875 -6.21875 C 1.8125 -8.289062 1.234375 -10.554688 1.234375 -13.015625 C 1.234375 -15.460938 1.8125 -17.71875 2.96875 -19.78125 C 4.132812 -21.851562 5.695312 -23.488281 7.65625 -24.6875 C 9.613281 -25.894531 11.734375 -26.5 14.015625 -26.5 C 16.097656 -26.5 17.957031 -26.035156 19.59375 -25.109375 C 21.226562 -24.179688 22.570312 -22.976562 23.625 -21.5 C 24.675781 -20.03125 25.398438 -18.453125 25.796875 -16.765625 L 20.265625 -16.765625 C 19.910156 -18.003906 19.1875 -19.082031 18.09375 -20 C 17.007812 -20.914062 15.648438 -21.375 14.015625 -21.375 C 12.671875 -21.375 11.429688 -21.007812 10.296875 -20.28125 C 9.160156 -19.550781 8.25 -18.546875 7.5625 -17.265625 C 6.882812 -15.992188 6.546875 -14.578125 6.546875 -13.015625 C 6.546875 -11.453125 6.882812 -10.03125 7.5625 -8.75 C 8.25 -7.476562 9.160156 -6.472656 10.296875 -5.734375 C 11.429688 -5.003906 12.671875 -4.640625 14.015625 -4.640625 C 15.648438 -4.640625 17.019531 -5.09375 18.125 -6 C 19.226562 -6.90625 20 -7.976562 20.4375 -9.21875 L 25.984375 -9.21875 C 25.585938 -7.5625 24.863281 -5.992188 23.8125 -4.515625 C 22.757812 -3.035156 21.394531 -1.832031 19.71875 -0.90625 C 18.039062 0.0195312 16.140625 0.484375 14.015625 0.484375 Z M 14.015625 0.484375 "/></g></g><g style="fill:#1e90ff;fill-opacity:1;"><g transform="translate(300.642023, 72.083058)"><path style="stroke:none" d="M 16.578125 0 L 11.375 -9.375 L 7.921875 -9.375 L 7.921875 0 L 2.609375 0 L 2.609375 -26.015625 L 13.15625 -26.015625 C 14.820312 -26.015625 16.320312 -25.65625 17.65625 -24.9375 C 18.988281 -24.21875 20.039062 -23.21875 20.8125 -21.9375 C 21.582031 -20.664062 21.96875 -19.226562 21.96875 -17.625 C 21.96875 -15.957031 21.484375 -14.460938 20.515625 -13.140625 C 19.546875 -11.816406 18.234375 -10.832031 16.578125 -10.1875 L 22.71875 0 Z M 7.921875 -20.96875 L 7.921875 -14.203125 L 13.015625 -14.203125 C 14.054688 -14.203125 14.921875 -14.515625 15.609375 -15.140625 C 16.304688 -15.773438 16.65625 -16.585938 16.65625 -17.578125 C 16.65625 -18.566406 16.304688 -19.378906 15.609375 -20.015625 C 14.921875 -20.648438 14.054688 -20.96875 13.015625 -20.96875 Z M 7.921875 -20.96875 "/></g></g><g style="fill:#1e90ff;fill-opacity:1;"><g transform="translate(324.276237, 72.083058)"><path style="stroke:none" d="M 14.015625 0.484375 C 11.734375 0.484375 9.613281 -0.113281 7.65625 -1.3125 C 5.695312 -2.519531 4.132812 -4.15625 2.96875 -6.21875 C 1.8125 -8.289062 1.234375 -10.554688 1.234375 -13.015625 C 1.234375 -15.460938 1.8125 -17.71875 2.96875 -19.78125 C 4.132812 -21.851562 5.695312 -23.488281 7.65625 -24.6875 C 9.613281 -25.894531 11.734375 -26.5 14.015625 -26.5 C 16.296875 -26.5 18.414062 -25.894531 20.375 -24.6875 C 22.332031 -23.488281 23.890625 -21.851562 25.046875 -19.78125 C 26.210938 -17.71875 26.796875 -15.460938 26.796875 -13.015625 C 26.796875 -10.554688 26.210938 -8.289062 25.046875 -6.21875 C 23.890625 -4.15625 22.332031 -2.519531 20.375 -1.3125 C 18.414062 -0.113281 16.296875 0.484375 14.015625 0.484375 Z M 14.015625 -4.640625 C 15.347656 -4.640625 16.582031 -5.003906 17.71875 -5.734375 C 18.863281 -6.472656 19.773438 -7.476562 20.453125 -8.75 C 21.140625 -10.03125 21.484375 -11.453125 21.484375 -13.015625 C 21.484375 -14.578125 21.140625 -15.992188 20.453125 -17.265625 C 19.773438 -18.546875 18.863281 -19.550781 17.71875 -20.28125 C 16.582031 -21.007812 15.347656 -21.375 14.015625 -21.375 C 12.671875 -21.375 11.429688 -21.007812 10.296875 -20.28125 C 9.160156 -19.550781 8.25 -18.546875 7.5625 -17.265625 C 6.882812 -15.992188 6.546875 -14.578125 6.546875 -13.015625 C 6.546875 -11.453125 6.882812 -10.03125 7.5625 -8.75 C 8.25 -7.476562 9.160156 -6.472656 10.296875 -5.734375 C 11.429688 -5.003906 12.671875 -4.640625 14.015625 -4.640625 Z M 14.015625 -4.640625 "/></g></g><g style="fill:#1e90ff;fill-opacity:1;"><g transform="translate(352.295412, 72.083058)"><path style="stroke:none" d="M 11.15625 0.484375 C 9.164062 0.484375 7.429688 0.109375 5.953125 -0.640625 C 4.484375 -1.398438 3.332031 -2.4375 2.5 -3.75 C 1.675781 -5.0625 1.226562 -6.550781 1.15625 -8.21875 L 6.46875 -8.21875 C 6.613281 -7.050781 7.082031 -6.101562 7.875 -5.375 C 8.664062 -4.644531 9.757812 -4.28125 11.15625 -4.28125 C 12.46875 -4.28125 13.460938 -4.539062 14.140625 -5.0625 C 14.828125 -5.582031 15.171875 -6.222656 15.171875 -6.984375 C 15.171875 -7.628906 14.945312 -8.175781 14.5 -8.625 C 14.050781 -9.070312 13.492188 -9.4375 12.828125 -9.71875 C 12.160156 -10 11.226562 -10.34375 10.03125 -10.75 C 8.300781 -11.3125 6.882812 -11.867188 5.78125 -12.421875 C 4.675781 -12.984375 3.726562 -13.789062 2.9375 -14.84375 C 2.144531 -15.90625 1.75 -17.273438 1.75 -18.953125 C 1.75 -20.390625 2.109375 -21.675781 2.828125 -22.8125 C 3.546875 -23.957031 4.59375 -24.859375 5.96875 -25.515625 C 7.34375 -26.171875 8.957031 -26.5 10.8125 -26.5 C 12.601562 -26.5 14.191406 -26.125 15.578125 -25.375 C 16.960938 -24.632812 18.050781 -23.617188 18.84375 -22.328125 C 19.632812 -21.046875 20.066406 -19.613281 20.140625 -18.03125 L 14.828125 -18.03125 C 14.753906 -19.113281 14.359375 -20.003906 13.640625 -20.703125 C 12.921875 -21.398438 11.976562 -21.75 10.8125 -21.75 C 9.625 -21.75 8.703125 -21.476562 8.046875 -20.9375 C 7.390625 -20.40625 7.0625 -19.722656 7.0625 -18.890625 C 7.0625 -18.242188 7.285156 -17.695312 7.734375 -17.25 C 8.179688 -16.800781 8.734375 -16.441406 9.390625 -16.171875 C 10.046875 -15.898438 10.976562 -15.566406 12.1875 -15.171875 C 13.894531 -14.617188 15.304688 -14.078125 16.421875 -13.546875 C 17.546875 -13.015625 18.503906 -12.234375 19.296875 -11.203125 C 20.085938 -10.179688 20.484375 -8.835938 20.484375 -7.171875 C 20.484375 -5.710938 20.113281 -4.40625 19.375 -3.25 C 18.644531 -2.101562 17.570312 -1.191406 16.15625 -0.515625 C 14.75 0.148438 13.082031 0.484375 11.15625 0.484375 Z M 11.15625 0.484375 "/></g></g><g clip-rule="nonzero" clip-path="url(#697569e5b2)"><path style=" stroke:none;fill-rule:nonzero;fill:#000000;fill-opacity:1;" d="M 8.371094 27.496094 L 14.195312 27.496094 L 14.195312 61.097656 L 8.371094 61.097656 Z M 8.371094 27.496094 "/></g></g></svg>