<svg xmlns="http://www.w3.org/2000/svg" xmlns:xlink="http://www.w3.org/1999/xlink" width="300" zoomAndPan="magnify" viewBox="0 0 224.87999 112.499997" height="150" preserveAspectRatio="xMidYMid meet" version="1.2"><defs><clipPath id="f986ba064e"><path d="M 26.503906 4 L 51 4 L 51 43.554688 L 26.503906 43.554688 Z M 26.503906 4 "/></clipPath></defs><g id="fa14151d6d"><g style="fill:#59b9ff;fill-opacity:1;"><g transform="translate(4.472463, 68.862972)"><path style="stroke:none" d="M 60.1875 -50.09375 L 60.1875 0 L 55.109375 0 L 55.109375 -40.078125 L 35.421875 -6.375 L 32.921875 -6.375 L 13.234375 -39.859375 L 13.234375 0 L 8.15625 0 L 8.15625 -50.09375 L 12.53125 -50.09375 L 34.28125 -12.953125 L 55.8125 -50.09375 Z M 60.1875 -50.09375 "/></g></g><g style="fill:#1e90ff;fill-opacity:1;"><g transform="translate(4.472463, 88.038971)"><path style="stroke:none" d="M 60.1875 -50.09375 L 60.1875 0 L 55.109375 0 L 55.109375 -40.078125 L 35.421875 -6.375 L 32.921875 -6.375 L 13.234375 -39.859375 L 13.234375 0 L 8.15625 0 L 8.15625 -50.09375 L 12.53125 -50.09375 L 34.28125 -12.953125 L 55.8125 -50.09375 Z M 60.1875 -50.09375 "/></g></g><g clip-rule="nonzero" clip-path="url(#f986ba064e)"><path style=" stroke:none;fill-rule:evenodd;fill:#ffb300;fill-opacity:1;" d="M 38.683594 43.472656 C 37.789062 39.074219 36.207031 35.410156 34.292969 32.015625 C 32.875 29.5 31.230469 27.175781 29.707031 24.734375 C 29.199219 23.917969 28.761719 23.058594 28.273438 22.210938 C 27.296875 20.523438 26.503906 18.5625 26.554688 16.015625 C 26.605469 13.53125 27.324219 11.539062 28.359375 9.910156 C 30.0625 7.226562 32.917969 5.03125 36.75 4.453125 C 39.882812 3.980469 42.820312 4.777344 44.902344 5.996094 C 46.605469 6.992188 47.921875 8.320312 48.925781 9.886719 C 49.96875 11.523438 50.691406 13.453125 50.75 15.972656 C 50.78125 17.265625 50.570312 18.460938 50.273438 19.453125 C 49.96875 20.457031 49.484375 21.292969 49.054688 22.191406 C 48.210938 23.941406 47.15625 25.542969 46.097656 27.148438 C 42.941406 31.925781 39.980469 36.796875 38.683594 43.472656 Z M 38.683594 43.472656 "/></g><path style=" stroke:none;fill-rule:nonzero;fill:#ffffff;fill-opacity:1;" d="M 42.890625 15.988281 C 42.890625 16.269531 42.863281 16.542969 42.8125 16.816406 C 42.757812 17.089844 42.675781 17.355469 42.570312 17.613281 C 42.460938 17.871094 42.332031 18.113281 42.175781 18.34375 C 42.023438 18.578125 41.847656 18.789062 41.652344 18.988281 C 41.453125 19.183594 41.238281 19.359375 41.007812 19.515625 C 40.777344 19.667969 40.53125 19.800781 40.273438 19.90625 C 40.019531 20.011719 39.753906 20.09375 39.480469 20.148438 C 39.207031 20.203125 38.929688 20.230469 38.652344 20.230469 C 38.375 20.230469 38.097656 20.203125 37.824219 20.148438 C 37.554688 20.09375 37.289062 20.011719 37.03125 19.90625 C 36.773438 19.800781 36.527344 19.667969 36.296875 19.515625 C 36.066406 19.359375 35.851562 19.183594 35.65625 18.988281 C 35.457031 18.789062 35.28125 18.578125 35.128906 18.34375 C 34.972656 18.113281 34.84375 17.871094 34.738281 17.613281 C 34.628906 17.355469 34.550781 17.089844 34.496094 16.816406 C 34.441406 16.542969 34.414062 16.269531 34.414062 15.988281 C 34.414062 15.710938 34.441406 15.4375 34.496094 15.164062 C 34.550781 14.890625 34.628906 14.625 34.738281 14.367188 C 34.84375 14.109375 34.972656 13.867188 35.128906 13.632812 C 35.28125 13.402344 35.457031 13.1875 35.65625 12.992188 C 35.851562 12.796875 36.066406 12.621094 36.296875 12.464844 C 36.527344 12.308594 36.773438 12.179688 37.03125 12.074219 C 37.289062 11.964844 37.554688 11.886719 37.824219 11.832031 C 38.097656 11.777344 38.375 11.75 38.652344 11.75 C 38.929688 11.75 39.207031 11.777344 39.480469 11.832031 C 39.753906 11.886719 40.019531 11.964844 40.273438 12.074219 C 40.53125 12.179688 40.777344 12.308594 41.007812 12.464844 C 41.238281 12.621094 41.453125 12.796875 41.652344 12.992188 C 41.847656 13.1875 42.023438 13.402344 42.175781 13.632812 C 42.332031 13.867188 42.460938 14.109375 42.570312 14.367188 C 42.675781 14.625 42.757812 14.890625 42.8125 15.164062 C 42.863281 15.4375 42.890625 15.710938 42.890625 15.988281 Z M 42.890625 15.988281 "/><g style="fill:#004aad;fill-opacity:1;"><g transform="translate(4.472463, 107.350587)"><path style="stroke:none" d="M 60.1875 -50.09375 L 60.1875 0 L 55.109375 0 L 55.109375 -40.078125 L 35.421875 -6.375 L 32.921875 -6.375 L 13.234375 -39.859375 L 13.234375 0 L 8.15625 0 L 8.15625 -50.09375 L 12.53125 -50.09375 L 34.28125 -12.953125 L 55.8125 -50.09375 Z M 60.1875 -50.09375 "/></g></g><g style="fill:#004aad;fill-opacity:1;"><g transform="translate(65.238529, 40.679963)"><path style="stroke:none" d="M 26.484375 -22.046875 L 26.484375 0 L 24.25 0 L 24.25 -17.640625 L 15.59375 -2.796875 L 14.484375 -2.796875 L 5.828125 -17.546875 L 5.828125 0 L 3.59375 0 L 3.59375 -22.046875 L 5.515625 -22.046875 L 15.09375 -5.703125 L 24.5625 -22.046875 Z M 26.484375 -22.046875 "/></g></g><g style="fill:#004aad;fill-opacity:1;"><g transform="translate(95.315086, 40.679963)"><path style="stroke:none" d="M 17.421875 -5.890625 L 5.140625 -5.890625 L 2.484375 0 L 0.0625 0 L 10.140625 -22.046875 L 12.4375 -22.046875 L 22.515625 0 L 20.0625 0 Z M 16.5625 -7.78125 L 11.28125 -19.625 L 5.984375 -7.78125 Z M 16.5625 -7.78125 "/></g></g><g style="fill:#004aad;fill-opacity:1;"><g transform="translate(117.896127, 40.679963)"><path style="stroke:none" d="M 11.84375 -22.046875 C 14.65625 -22.046875 16.859375 -21.375 18.453125 -20.03125 C 20.054688 -18.6875 20.859375 -16.835938 20.859375 -14.484375 C 20.859375 -12.140625 20.054688 -10.300781 18.453125 -8.96875 C 16.859375 -7.632812 14.65625 -6.96875 11.84375 -6.96875 L 5.921875 -6.96875 L 5.921875 0 L 3.59375 0 L 3.59375 -22.046875 Z M 11.78125 -9.015625 C 13.96875 -9.015625 15.632812 -9.488281 16.78125 -10.4375 C 17.9375 -11.394531 18.515625 -12.742188 18.515625 -14.484375 C 18.515625 -16.273438 17.9375 -17.644531 16.78125 -18.59375 C 15.632812 -19.550781 13.96875 -20.03125 11.78125 -20.03125 L 5.921875 -20.03125 L 5.921875 -9.015625 Z M 11.78125 -9.015625 "/></g></g><g style="fill:#1e90ff;fill-opacity:1;"><g transform="translate(66.005618, 105.844809)"><path style="stroke:none" d="M 24.015625 0 L 23.984375 -14.015625 L 17.109375 -2.46875 L 14.671875 -2.46875 L 7.84375 -13.703125 L 7.84375 0 L 2.765625 0 L 2.765625 -23.34375 L 7.234375 -23.34375 L 15.984375 -8.84375 L 24.578125 -23.34375 L 29.015625 -23.34375 L 29.09375 0 Z M 24.015625 0 "/></g></g><g style="fill:#1e90ff;fill-opacity:1;"><g transform="translate(97.869293, 105.844809)"><path style="stroke:none" d="M 18.140625 -5 L 7.3125 -5 L 5.234375 0 L -0.296875 0 L 10.109375 -23.34375 L 15.453125 -23.34375 L 25.890625 0 L 20.21875 0 Z M 16.453125 -9.109375 L 12.75 -18.046875 L 9.046875 -9.109375 Z M 16.453125 -9.109375 "/></g></g><g style="fill:#1e90ff;fill-opacity:1;"><g transform="translate(123.09328, 105.844809)"><path style="stroke:none" d="M 13.9375 0.40625 C 11.5625 0.40625 9.410156 -0.109375 7.484375 -1.140625 C 5.566406 -2.179688 4.054688 -3.617188 2.953125 -5.453125 C 1.847656 -7.285156 1.296875 -9.359375 1.296875 -11.671875 C 1.296875 -13.984375 1.847656 -16.054688 2.953125 -17.890625 C 4.054688 -19.734375 5.566406 -21.171875 7.484375 -22.203125 C 9.410156 -23.234375 11.578125 -23.75 13.984375 -23.75 C 16.003906 -23.75 17.832031 -23.390625 19.46875 -22.671875 C 21.101562 -21.960938 22.472656 -20.941406 23.578125 -19.609375 L 20.109375 -16.40625 C 18.535156 -18.226562 16.582031 -19.140625 14.25 -19.140625 C 12.800781 -19.140625 11.507812 -18.820312 10.375 -18.1875 C 9.238281 -17.5625 8.351562 -16.679688 7.71875 -15.546875 C 7.082031 -14.410156 6.765625 -13.117188 6.765625 -11.671875 C 6.765625 -10.222656 7.082031 -8.929688 7.71875 -7.796875 C 8.351562 -6.671875 9.238281 -5.789062 10.375 -5.15625 C 11.507812 -4.519531 12.800781 -4.203125 14.25 -4.203125 C 16.582031 -4.203125 18.535156 -5.125 20.109375 -6.96875 L 23.578125 -3.765625 C 22.472656 -2.410156 21.097656 -1.375 19.453125 -0.65625 C 17.804688 0.0507812 15.96875 0.40625 13.9375 0.40625 Z M 13.9375 0.40625 "/></g></g><g style="fill:#1e90ff;fill-opacity:1;"><g transform="translate(147.549903, 105.844809)"><path style="stroke:none" d="M 17.640625 0 L 13.140625 -6.5 L 8.171875 -6.5 L 8.171875 0 L 2.765625 0 L 2.765625 -23.34375 L 12.875 -23.34375 C 14.945312 -23.34375 16.742188 -23 18.265625 -22.3125 C 19.785156 -21.625 20.957031 -20.644531 21.78125 -19.375 C 22.601562 -18.113281 23.015625 -16.613281 23.015625 -14.875 C 23.015625 -13.144531 22.597656 -11.648438 21.765625 -10.390625 C 20.929688 -9.128906 19.75 -8.164062 18.21875 -7.5 L 23.453125 0 Z M 17.546875 -14.875 C 17.546875 -16.1875 17.125 -17.191406 16.28125 -17.890625 C 15.4375 -18.597656 14.203125 -18.953125 12.578125 -18.953125 L 8.171875 -18.953125 L 8.171875 -10.8125 L 12.578125 -10.8125 C 14.203125 -10.8125 15.4375 -11.164062 16.28125 -11.875 C 17.125 -12.582031 17.546875 -13.582031 17.546875 -14.875 Z M 17.546875 -14.875 "/></g></g><g style="fill:#1e90ff;fill-opacity:1;"><g transform="translate(172.073248, 105.844809)"><path style="stroke:none" d="M 14.078125 0.40625 C 11.648438 0.40625 9.460938 -0.113281 7.515625 -1.15625 C 5.578125 -2.207031 4.054688 -3.648438 2.953125 -5.484375 C 1.847656 -7.316406 1.296875 -9.378906 1.296875 -11.671875 C 1.296875 -13.960938 1.847656 -16.023438 2.953125 -17.859375 C 4.054688 -19.691406 5.578125 -21.128906 7.515625 -22.171875 C 9.460938 -23.222656 11.648438 -23.75 14.078125 -23.75 C 16.503906 -23.75 18.679688 -23.222656 20.609375 -22.171875 C 22.546875 -21.128906 24.070312 -19.691406 25.1875 -17.859375 C 26.300781 -16.023438 26.859375 -13.960938 26.859375 -11.671875 C 26.859375 -9.378906 26.300781 -7.316406 25.1875 -5.484375 C 24.070312 -3.648438 22.546875 -2.207031 20.609375 -1.15625 C 18.679688 -0.113281 16.503906 0.40625 14.078125 0.40625 Z M 14.078125 -4.203125 C 15.453125 -4.203125 16.695312 -4.519531 17.8125 -5.15625 C 18.925781 -5.789062 19.800781 -6.671875 20.4375 -7.796875 C 21.070312 -8.929688 21.390625 -10.222656 21.390625 -11.671875 C 21.390625 -13.117188 21.070312 -14.410156 20.4375 -15.546875 C 19.800781 -16.679688 18.925781 -17.5625 17.8125 -18.1875 C 16.695312 -18.820312 15.453125 -19.140625 14.078125 -19.140625 C 12.703125 -19.140625 11.457031 -18.820312 10.34375 -18.1875 C 9.226562 -17.5625 8.351562 -16.679688 7.71875 -15.546875 C 7.082031 -14.410156 6.765625 -13.117188 6.765625 -11.671875 C 6.765625 -10.222656 7.082031 -8.929688 7.71875 -7.796875 C 8.351562 -6.671875 9.226562 -5.789062 10.34375 -5.15625 C 11.457031 -4.519531 12.703125 -4.203125 14.078125 -4.203125 Z M 14.078125 -4.203125 "/></g></g><g style="fill:#1e90ff;fill-opacity:1;"><g transform="translate(200.23339, 105.844809)"><path style="stroke:none" d="M 10.4375 0.40625 C 8.59375 0.40625 6.804688 0.15625 5.078125 -0.34375 C 3.359375 -0.84375 1.976562 -1.492188 0.9375 -2.296875 L 2.765625 -6.375 C 3.765625 -5.632812 4.953125 -5.039062 6.328125 -4.59375 C 7.710938 -4.15625 9.09375 -3.9375 10.46875 -3.9375 C 12.007812 -3.9375 13.144531 -4.160156 13.875 -4.609375 C 14.613281 -5.066406 14.984375 -5.675781 14.984375 -6.4375 C 14.984375 -6.988281 14.765625 -7.445312 14.328125 -7.8125 C 13.890625 -8.1875 13.332031 -8.484375 12.65625 -8.703125 C 11.976562 -8.929688 11.0625 -9.175781 9.90625 -9.4375 C 8.125 -9.863281 6.664062 -10.285156 5.53125 -10.703125 C 4.40625 -11.128906 3.4375 -11.804688 2.625 -12.734375 C 1.8125 -13.671875 1.40625 -14.921875 1.40625 -16.484375 C 1.40625 -17.835938 1.769531 -19.0625 2.5 -20.15625 C 3.238281 -21.257812 4.347656 -22.132812 5.828125 -22.78125 C 7.304688 -23.425781 9.109375 -23.75 11.234375 -23.75 C 12.734375 -23.75 14.191406 -23.570312 15.609375 -23.21875 C 17.035156 -22.863281 18.28125 -22.351562 19.34375 -21.6875 L 17.6875 -17.578125 C 15.519531 -18.804688 13.359375 -19.421875 11.203125 -19.421875 C 9.691406 -19.421875 8.570312 -19.175781 7.84375 -18.6875 C 7.125 -18.195312 6.765625 -17.550781 6.765625 -16.75 C 6.765625 -15.945312 7.179688 -15.347656 8.015625 -14.953125 C 8.859375 -14.566406 10.132812 -14.1875 11.84375 -13.8125 C 13.625 -13.382812 15.078125 -12.957031 16.203125 -12.53125 C 17.335938 -12.113281 18.3125 -11.445312 19.125 -10.53125 C 19.9375 -9.625 20.34375 -8.394531 20.34375 -6.84375 C 20.34375 -5.507812 19.96875 -4.289062 19.21875 -3.1875 C 18.476562 -2.082031 17.363281 -1.207031 15.875 -0.5625 C 14.382812 0.0820312 12.570312 0.40625 10.4375 0.40625 Z M 10.4375 0.40625 "/></g></g><g style="fill:#004aad;fill-opacity:1;"><g transform="translate(65.238529, 72.760298)"><path style="stroke:none" d="M 26.484375 -22.046875 L 26.484375 0 L 24.25 0 L 24.25 -17.640625 L 15.59375 -2.796875 L 14.484375 -2.796875 L 5.828125 -17.546875 L 5.828125 0 L 3.59375 0 L 3.59375 -22.046875 L 5.515625 -22.046875 L 15.09375 -5.703125 L 24.5625 -22.046875 Z M 26.484375 -22.046875 "/></g></g><g style="fill:#004aad;fill-opacity:1;"><g transform="translate(95.315086, 72.760298)"><path style="stroke:none" d="M 11.15625 -7.625 L 11.15625 0 L 8.84375 0 L 8.84375 -7.625 L 0.03125 -22.046875 L 2.515625 -22.046875 L 10.078125 -9.671875 L 17.640625 -22.046875 L 19.96875 -22.046875 Z M 11.15625 -7.625 "/></g></g></g></svg>